<?xml version="1.0" encoding="UTF-8"?>
<svg xmlns="http://www.w3.org/2000/svg" xmlns:xlink="http://www.w3.org/1999/xlink" width="555.73pt" height="162.07pt" viewBox="0 0 555.73 162.07" version="1.1">
<defs>
<clipPath id="clip1">
  <path d="M 282 134 L 317 134 L 317 162.070313 L 282 162.070313 Z M 282 134 "/>
</clipPath>
<clipPath id="clip2">
  <path d="M 483 52 L 555.730469 52 L 555.730469 121 L 483 121 Z M 483 52 "/>
</clipPath>
<clipPath id="clip3">
  <path d="M 496 128 L 542 128 L 542 162.070313 L 496 162.070313 Z M 496 128 "/>
</clipPath>
<clipPath id="clip4">
  <path d="M 424 134 L 458 134 L 458 162.070313 L 424 162.070313 Z M 424 134 "/>
</clipPath>
<clipPath id="clip5">
  <path d="M 354 134 L 385 134 L 385 162.070313 L 354 162.070313 Z M 354 134 "/>
</clipPath>
<clipPath id="clip6">
  <path d="M 207 134 L 246 134 L 246 162.070313 L 207 162.070313 Z M 207 134 "/>
</clipPath>
</defs>
<g id="surface1">
<g clip-path="url(#clip1)" clip-rule="nonzero">
<path style=" stroke:none;fill-rule:nonzero;fill:rgb(13.299561%,12.199402%,12.199402%);fill-opacity:1;" d="M 297.671875 147.132813 C 295.414063 147.132813 293.15625 147.085938 290.902344 147.152344 C 289.824219 147.1875 289.289063 146.980469 289.375 145.734375 C 289.507813 143.808594 288.753906 141.265625 289.722656 140.097656 C 290.738281 138.863281 293.371094 139.746094 295.296875 139.71875 C 298.492188 139.671875 301.691406 139.738281 304.886719 139.753906 C 306.675781 139.761719 307.421875 140.582031 307.417969 142.433594 C 307.414063 147.125 307.472656 147.132813 302.753906 147.132813 C 301.058594 147.132813 299.367188 147.132813 297.671875 147.132813 M 304.125 152.117188 C 304.140625 152.070313 304.164063 152.03125 304.1875 151.988281 C 306.175781 151.753906 307.816406 152.035156 309.429688 151.691406 C 312.308594 151.078125 313.46875 149.863281 313.570313 146.988281 C 313.652344 144.609375 313.660156 142.222656 313.570313 139.847656 C 313.464844 136.992188 312.042969 135.5 309.199219 135.121094 C 308.273438 134.996094 307.324219 135.003906 306.386719 135.003906 C 299.175781 134.992188 291.964844 135.050781 284.757813 134.953125 C 283.183594 134.933594 282.941406 135.480469 282.949219 136.867188 C 283.003906 145.269531 282.96875 153.667969 282.964844 162.070313 L 283.121094 162.070313 C 285.21875 162.070313 287.316406 162.070313 289.410156 162.070313 C 289.410156 161.898438 289.410156 161.730469 289.410156 161.5625 C 289.414063 158.785156 289.445313 156.007813 289.378906 153.234375 C 289.355469 152.167969 289.691406 151.722656 290.75 151.882813 C 290.8125 151.890625 290.878906 151.890625 290.9375 151.882813 C 294.125 151.394531 296.671875 152.339844 298.921875 154.769531 C 301.160156 157.183594 303.699219 159.316406 306.144531 161.539063 C 306.335938 161.714844 306.527344 161.886719 306.71875 162.066406 C 309.726563 162.0625 312.730469 162.0625 315.734375 162.0625 C 315.890625 162.0625 316.046875 162.0625 316.203125 162.0625 C 312.25 158.816406 308.296875 155.570313 304.121094 152.148438 C 304.121094 152.136719 304.121094 152.128906 304.125 152.117188 "/>
</g>
<path style=" stroke:none;fill-rule:nonzero;fill:rgb(13.299561%,12.199402%,12.199402%);fill-opacity:1;" d="M 0.585938 120.421875 C 6.808594 120.40625 13.027344 120.347656 19.25 120.414063 C 20.675781 120.429688 21.03125 120.027344 21.019531 118.628906 C 20.949219 111.609375 21.023438 104.585938 20.957031 97.566406 C 20.941406 96.1875 21.269531 95.769531 22.707031 95.777344 C 32.234375 95.847656 41.765625 95.820313 51.292969 95.808594 C 53.796875 95.808594 56.570313 96.429688 58.734375 95.558594 C 60.910156 94.679688 61.933594 91.851563 63.519531 89.925781 C 63.558594 89.875 63.605469 89.835938 63.644531 89.785156 C 66.265625 86.390625 68.886719 82.992188 71.738281 79.292969 L 69.339844 79.292969 C 53.980469 79.292969 38.621094 79.25 23.265625 79.351563 C 21.265625 79.363281 20.792969 78.761719 20.96875 76.949219 C 21.113281 75.457031 21.101563 73.933594 20.96875 72.441406 C 20.835938 70.933594 21.375 70.582031 22.835938 70.589844 C 35.25 70.648438 47.660156 70.589844 60.074219 70.664063 C 61.503906 70.671875 62.359375 70.128906 63.140625 69.117188 C 65.652344 65.863281 68.1875 62.621094 70.699219 59.367188 C 72.269531 57.324219 73.820313 55.269531 75.566406 52.976563 L 0.0859375 52.976563 C 0.0546875 74.707031 0.0273438 96.441406 0 118.171875 C 0 118.925781 0.046875 119.675781 0.0664063 120.425781 C 0.242188 120.421875 0.414063 120.421875 0.585938 120.421875 "/>
<path style=" stroke:none;fill-rule:nonzero;fill:rgb(13.299561%,12.199402%,12.199402%);fill-opacity:1;" d="M 191.691406 53.019531 C 189.96875 52.777344 188.710938 53.105469 187.558594 54.710938 C 184.46875 59.035156 181.121094 63.175781 177.882813 67.394531 C 177.140625 68.359375 176.429688 69.34375 175.472656 70.632813 L 177.882813 70.632813 C 186.90625 70.632813 195.933594 70.675781 204.957031 70.59375 C 206.628906 70.578125 207.140625 70.957031 207.132813 72.71875 C 207.0625 87.949219 207.121094 103.179688 207.070313 118.40625 C 207.066406 119.917969 207.390625 120.460938 209.007813 120.433594 C 214.707031 120.335938 220.414063 120.335938 226.113281 120.433594 C 227.699219 120.460938 228.0625 119.984375 228.058594 118.449219 C 228.003906 103.09375 228.054688 87.738281 228.011719 72.382813 C 228.003906 71.007813 228.300781 70.578125 229.742188 70.59375 C 236.636719 70.675781 243.53125 70.636719 250.425781 70.621094 C 251.023438 70.617188 251.738281 70.898438 252.199219 70.324219 C 253.695313 68.449219 255.285156 66.640625 256.550781 64.539063 C 240.015625 60.71875 223.519531 57.65625 206.921875 55.132813 C 201.855469 54.363281 196.765625 53.730469 191.691406 53.019531 "/>
<path style=" stroke:none;fill-rule:nonzero;fill:rgb(13.299561%,12.199402%,12.199402%);fill-opacity:1;" d="M 351.464844 113.945313 C 351.484375 113.914063 351.503906 113.882813 351.523438 113.851563 C 351.546875 113.886719 351.566406 113.921875 351.589844 113.953125 C 351.546875 113.953125 351.503906 113.953125 351.464844 113.945313 M 274.71875 114.335938 C 274.71875 114.335938 274.71875 114.332031 274.71875 114.332031 C 274.71875 114.332031 274.71875 114.332031 274.722656 114.335938 C 274.722656 114.335938 274.71875 114.335938 274.71875 114.335938 M 357.820313 95.378906 C 344.046875 90 330.121094 85.042969 316.066406 80.453125 C 314.617188 79.980469 313.164063 79.78125 311.644531 79.785156 C 306.3125 79.804688 300.980469 79.847656 295.65625 79.699219 C 291.660156 79.585938 290.140625 77.652344 290.773438 73.742188 C 290.929688 72.792969 290.484375 72.699219 289.835938 72.527344 C 283.972656 70.992188 278.109375 69.46875 272.265625 67.871094 C 271.527344 67.667969 271.285156 67.769531 271.082031 68.453125 C 269.140625 75.03125 270.664063 84.15625 277.492188 88.734375 C 282.007813 91.761719 287.082031 93.128906 292.390625 93.207031 C 305.050781 93.398438 317.71875 93.300781 330.386719 93.320313 C 332.078125 93.320313 333.769531 93.316406 335.445313 93.605469 C 338.023438 94.050781 339.285156 95.386719 339.425781 97.828125 C 339.570313 100.429688 338.335938 102.070313 335.734375 102.726563 C 334.316406 103.085938 332.871094 103.023438 331.433594 103.023438 C 315.316406 103.027344 299.203125 103.023438 283.089844 103.035156 C 282.363281 103.039063 281.488281 102.753906 280.957031 103.445313 C 278.6875 106.410156 276.46875 109.414063 274.226563 112.402344 C 272.082031 114.871094 270.121094 117.472656 268.109375 120.328125 C 268.835938 120.367188 269.207031 120.402344 269.574219 120.402344 C 290.378906 120.402344 311.179688 120.40625 331.980469 120.386719 C 334.984375 120.386719 337.992188 120.226563 340.941406 119.578125 C 345.476563 118.578125 349.941406 117.40625 353.347656 113.917969 C 353.714844 113.96875 353.902344 113.683594 354.117188 113.472656 C 358.5625 109.09375 359.636719 103.554688 359.574219 97.617188 C 359.5625 96.382813 358.933594 95.8125 357.820313 95.378906 "/>
<path style=" stroke:none;fill-rule:nonzero;fill:rgb(13.299561%,12.199402%,12.199402%);fill-opacity:1;" d="M 86.683594 108.234375 C 91.367188 114.394531 98 117.335938 105.253906 119.15625 C 114.644531 121.511719 124.222656 121.828125 133.820313 121.378906 C 141.492188 121.015625 149.035156 119.789063 155.949219 116.152344 C 162.722656 112.59375 167.328125 107.269531 169.023438 99.667969 C 169.722656 97.507813 170.066406 95.261719 170.078125 93.023438 C 170.140625 80.171875 170.09375 67.316406 170.152344 54.464844 C 170.160156 53.164063 169.71875 52.941406 168.554688 52.953125 C 162.726563 53.003906 156.894531 53.03125 151.0625 52.9375 C 149.511719 52.914063 149.085938 53.320313 149.097656 54.898438 C 149.171875 66.808594 149.125 78.722656 149.160156 90.632813 C 149.171875 93.574219 148.640625 96.347656 147.121094 98.890625 C 145.265625 100.9375 143.039063 102.421875 140.3125 102.960938 C 130.476563 104.898438 120.625 104.664063 110.84375 102.667969 C 105.554688 101.589844 103.199219 98.675781 102.636719 93.328125 C 102.507813 92.085938 102.484375 90.824219 102.484375 89.574219 C 102.476563 77.910156 102.480469 66.246094 102.492188 54.582031 C 102.496094 53.671875 102.621094 52.921875 101.210938 52.9375 C 95.128906 53.019531 89.042969 53 82.960938 52.949219 C 81.847656 52.941406 81.617188 53.347656 81.621094 54.367188 C 81.675781 67.410156 81.589844 80.457031 81.769531 93.496094 C 81.84375 98.84375 83.382813 103.898438 86.683594 108.234375 "/>
<g clip-path="url(#clip2)" clip-rule="nonzero">
<path style=" stroke:none;fill-rule:nonzero;fill:rgb(13.299561%,12.199402%,12.199402%);fill-opacity:1;" d="M 555.679688 103.34375 C 555.371094 102.683594 554.5625 103.046875 553.984375 103.046875 C 538.128906 103.027344 522.269531 103.03125 506.414063 103.03125 C 503.964844 103.03125 503.964844 103.03125 503.964844 100.664063 C 503.972656 85.371094 503.953125 70.078125 504.019531 54.785156 C 504.027344 53.292969 503.609375 52.921875 502.152344 52.941406 C 496.386719 53.023438 490.617188 53.027344 484.855469 52.941406 C 483.4375 52.917969 483.097656 53.300781 483.109375 54.699219 C 483.171875 65.289063 483.140625 75.882813 483.140625 86.476563 C 483.144531 97.132813 483.171875 107.785156 483.109375 118.441406 C 483.101563 119.949219 483.410156 120.445313 485.03125 120.4375 C 503.710938 120.375 522.386719 120.386719 541.066406 120.429688 C 542.265625 120.433594 543.015625 120.0625 543.730469 119.125 C 547.417969 114.300781 551.171875 109.527344 554.890625 104.726563 C 555.21875 104.300781 555.921875 103.875 555.679688 103.34375 "/>
</g>
<path style=" stroke:none;fill-rule:nonzero;fill:rgb(13.299561%,12.199402%,12.199402%);fill-opacity:1;" d="M 322.601563 70.667969 C 328.671875 70.453125 334.761719 70.460938 340.832031 70.683594 C 343.453125 70.78125 345.050781 69.941406 346.554688 67.851563 C 350.113281 62.894531 353.917969 58.109375 357.609375 53.273438 C 357.207031 52.824219 356.808594 52.984375 356.464844 52.984375 C 336.535156 52.976563 316.605469 52.945313 296.675781 53.023438 C 293.878906 53.035156 291.054688 53.441406 288.296875 53.949219 C 286.230469 54.332031 284.117188 54.839844 282.046875 56.09375 C 291.921875 60.113281 301.507813 63.917969 310.847656 68.28125 C 314.644531 70.054688 318.433594 70.8125 322.601563 70.667969 "/>
<path style=" stroke:none;fill-rule:nonzero;fill:rgb(13.299561%,12.199402%,12.199402%);fill-opacity:1;" d="M 182.238281 41.453125 C 167.253906 38.523438 152.199219 36.003906 137.09375 33.769531 C 134.851563 33.4375 133.476563 33.726563 132.621094 35.953125 C 132.253906 36.910156 131.4375 37.710938 130.78125 38.542969 C 128.773438 41.085938 126.339844 43.199219 123.613281 45.21875 C 126.738281 45.21875 129.601563 45.171875 132.464844 45.226563 C 145.6875 45.488281 158.851563 46.511719 171.992188 48.011719 C 185.925781 49.597656 199.789063 51.628906 213.605469 53.945313 C 231.980469 57.027344 250.265625 60.617188 268.472656 64.566406 C 272.179688 65.371094 275.882813 66.203125 279.585938 67.023438 C 279.609375 66.910156 279.632813 66.792969 279.65625 66.679688 C 279.144531 66.484375 278.636719 66.265625 278.113281 66.09375 C 264.4375 61.636719 250.644531 57.578125 236.734375 53.921875 C 218.703125 49.179688 200.535156 45.027344 182.238281 41.453125 "/>
<path style=" stroke:none;fill-rule:nonzero;fill:rgb(13.299561%,12.199402%,12.199402%);fill-opacity:1;" d="M 89.664063 14.625 C 90.835938 16.210938 89.449219 23.992188 87.769531 25.265625 C 87.597656 21.558594 88.113281 18.117188 89.664063 14.625 M 101.550781 13.8125 C 102.945313 14.949219 103.578125 16.003906 103.179688 17.902344 C 102.671875 20.339844 102.554688 22.867188 102.371094 25.363281 C 102.308594 26.246094 101.960938 26.710938 101.21875 27.085938 C 100.160156 27.625 99.148438 28.257813 98.121094 28.855469 C 95.277344 30.523438 95.21875 30.574219 93.179688 27.914063 C 92.03125 26.421875 90.433594 25.132813 90.320313 23.207031 C 90.628906 21.132813 90.917969 19.277344 91.171875 17.414063 C 91.425781 15.574219 92.929688 14.761719 94.171875 13.757813 C 97.914063 10.742188 97.875 10.820313 101.550781 13.8125 M 101.933594 2.488281 C 105.179688 1.117188 108.394531 0.457031 111.820313 0.746094 C 111 2.019531 103.71875 3.363281 101.933594 2.488281 M 117.558594 7.171875 C 116.78125 8.847656 116.058594 10.582031 115.171875 12.230469 C 114.652344 13.203125 113.480469 12.839844 112.613281 13.035156 C 110.234375 13.570313 107.820313 13.941406 105.433594 14.445313 C 104.78125 14.582031 104.242188 14.675781 103.6875 14.195313 C 102.316406 13.007813 100.925781 11.835938 99.519531 10.6875 C 98.933594 10.207031 99.117188 9.777344 99.398438 9.21875 C 101.726563 4.589844 105.683594 2.730469 110.613281 3.046875 C 113.234375 3.214844 115.203125 5.167969 117.308594 6.609375 C 117.433594 6.695313 117.457031 6.929688 117.558594 7.171875 M 124.34375 42.289063 C 124.285156 39.722656 129.34375 33.6875 131.515625 33.523438 C 129.941406 37.054688 127.554688 39.78125 124.34375 42.289063 M 118.289063 8.246094 C 118.644531 7.601563 118.996094 7.367188 119.753906 7.476563 C 124.921875 8.222656 128.097656 11.292969 129.882813 16.027344 C 129.96875 16.257813 130.027344 16.496094 130.109375 16.761719 C 129.738281 18.71875 129.378906 20.683594 128.988281 22.640625 C 128.824219 23.46875 128.3125 23.785156 127.480469 23.503906 C 127.363281 23.464844 127.238281 23.40625 127.117188 23.414063 C 122.886719 23.683594 120.238281 21.679688 118.921875 17.734375 C 118.804688 17.386719 118.621094 17.007813 118.359375 16.769531 C 115.296875 13.941406 116.730469 11.113281 118.289063 8.246094 M 120.640625 24.753906 C 121.222656 24.097656 121.804688 23.648438 122.734375 23.984375 C 122.960938 24.066406 123.230469 24.023438 123.476563 24.050781 C 128.988281 24.6875 128.988281 24.6875 129.054688 29.648438 C 129.441406 34.523438 126.4375 37.019531 123.628906 38.992188 C 121.714844 40.335938 118.683594 39.84375 116.117188 39.75 C 115.496094 39.726563 115.523438 39.191406 115.4375 38.789063 C 115.011719 36.714844 114.628906 34.632813 114.175781 32.5625 C 114.035156 31.933594 114.40625 31.648438 114.738281 31.285156 C 116.710938 29.109375 118.691406 26.945313 120.640625 24.753906 M 106.355469 42.945313 C 104.566406 42.394531 102.753906 41.390625 100.84375 40.65625 C 98.648438 39.816406 98.039063 38 97.367188 36.097656 C 95.78125 31.601563 95.855469 31.746094 99.78125 29.164063 C 101.871094 27.785156 103.582031 27.648438 105.722656 28.898438 C 107.597656 29.992188 109.671875 30.757813 111.6875 31.605469 C 112.636719 32.003906 113.171875 32.523438 113.3125 33.628906 C 113.53125 35.355469 113.976563 37.058594 114.316406 38.773438 C 114.410156 39.253906 114.574219 39.738281 114.085938 40.148438 C 113.53125 40.625 107.300781 42.976563 106.355469 42.945313 M 95.6875 41.089844 C 97.253906 40.402344 98.535156 40.382813 99.917969 41.261719 C 101.175781 42.0625 102.574219 42.71875 104 43.132813 C 105.730469 43.640625 106.84375 44.597656 107.386719 46.421875 C 102.972656 45.890625 99.21875 44.039063 95.6875 41.089844 M 132.304688 16.371094 C 130.769531 15.8125 126.832031 9.367188 127.003906 7.695313 C 129.429688 9.558594 131.925781 13.644531 132.304688 16.371094 M 126.101563 41.824219 C 136.128906 33.484375 137.328125 17.941406 128.734375 8.136719 C 124.714844 3.550781 119.632813 1.003906 113.6875 0.0195313 C 113.664063 0.0195313 113.640625 0.0195313 113.617188 0.0195313 C 111.636719 0.0117188 109.65625 0.00390625 107.675781 -0.00390625 C 107.671875 -0.00390625 107.667969 -0.00390625 107.664063 -0.00390625 L 107.667969 -0.00390625 C 107.441406 0.0898438 107.226563 0.222656 106.992188 0.261719 C 88.898438 3.246094 80.84375 24.359375 92.332031 38.691406 C 100.582031 48.980469 115.792969 50.390625 126.101563 41.824219 "/>
<path style=" stroke:none;fill-rule:nonzero;fill:rgb(13.299561%,12.199402%,12.199402%);fill-opacity:1;" d="M 136.738281 20.621094 C 138.601563 20.847656 140.453125 21.132813 142.3125 21.398438 C 160.964844 24.078125 179.433594 27.71875 197.785156 31.953125 C 213.695313 35.621094 229.492188 39.730469 245.160156 44.324219 C 250.65625 45.933594 256.140625 47.570313 261.632813 49.195313 C 218.890625 32.476563 175.253906 18.570313 130.320313 6.886719 C 132.789063 11.269531 134.683594 15.273438 135.558594 19.675781 C 135.699219 20.367188 136.105469 20.542969 136.738281 20.621094 "/>
<g clip-path="url(#clip3)" clip-rule="nonzero">
<path style=" stroke:none;fill-rule:nonzero;fill:rgb(13.299561%,12.199402%,12.199402%);fill-opacity:1;" d="M 511.527344 148.824219 C 513.941406 144.386719 516.273438 140.105469 518.75 135.550781 C 521.160156 140.097656 523.425781 144.371094 525.789063 148.824219 Z M 525.769531 134.085938 C 523.679688 130.054688 521.257813 128.277344 516.816406 129.007813 C 515.714844 129.191406 515.039063 129.421875 514.488281 130.425781 C 511.796875 135.304688 509.019531 140.136719 506.296875 145 C 503.113281 150.679688 499.953125 156.371094 496.78125 162.054688 L 497.054688 162.054688 C 499.5 162.054688 501.945313 162.054688 504.390625 162.054688 C 504.476563 161.886719 504.570313 161.71875 504.660156 161.550781 C 505.65625 159.683594 506.675781 157.828125 507.613281 155.929688 C 508.003906 155.132813 508.496094 154.882813 509.351563 154.886719 C 515.53125 154.914063 521.710938 154.917969 527.890625 154.878906 C 528.785156 154.875 529.242188 155.234375 529.625 155.96875 C 530.601563 157.847656 531.621094 159.703125 532.628906 161.5625 C 532.714844 161.730469 532.804688 161.894531 532.894531 162.058594 C 535.675781 162.058594 538.460938 162.0625 541.238281 162.0625 L 541.523438 162.0625 C 541.277344 161.558594 541.0625 161.039063 540.785156 160.550781 C 535.742188 151.75 530.4375 143.082031 525.769531 134.085938 "/>
</g>
<path style=" stroke:none;fill-rule:nonzero;fill:rgb(13.299561%,12.199402%,12.199402%);fill-opacity:1;" d="M 403.769531 119.449219 C 402.726563 118.699219 401.285156 118.574219 400.34375 117.574219 C 400.066406 117.28125 399.539063 117.023438 399.878906 116.503906 C 400.144531 116.097656 400.53125 116.386719 400.890625 116.457031 C 404.214844 117.109375 404.960938 116.746094 406.035156 113.519531 C 407.023438 110.53125 408.382813 107.644531 408.417969 104.378906 C 408.433594 102.722656 409.640625 101.53125 410.726563 100.414063 C 411.839844 99.265625 412.421875 98.003906 412.308594 96.382813 C 412.136719 93.914063 412.699219 91.390625 412.082031 88.953125 C 411.988281 88.589844 411.871094 88.230469 411.722656 87.875 C 410.980469 86.832031 410.902344 84.667969 408.707031 86.09375 C 408.304688 86.355469 407.917969 86.648438 407.527344 86.925781 C 407.277344 86.984375 407.03125 87.039063 406.785156 87.097656 C 406.445313 87.175781 406.109375 87.253906 405.769531 87.332031 C 405.4375 87.410156 405.101563 87.492188 404.765625 87.570313 C 404.027344 87.570313 403.269531 87.4375 402.585938 87.851563 C 402.542969 87.855469 402.503906 87.867188 402.464844 87.875 C 401.941406 87.988281 401.503906 88.265625 401.265625 88.730469 C 400.699219 89.824219 400.171875 89.703125 399.636719 89.160156 C 399.515625 89.035156 399.390625 88.886719 399.265625 88.726563 C 399.460938 88.101563 398.996094 87.34375 399.644531 86.808594 C 400.425781 86.835938 401.234375 87.085938 401.929688 86.5 C 403.714844 85.472656 405.492188 84.441406 407.484375 83.828125 C 408.628906 83.476563 409.917969 80.519531 409.472656 79.527344 C 408.308594 76.925781 408.992188 75.617188 411.910156 74.871094 C 412.144531 75.003906 412.398438 75.019531 412.65625 75.011719 L 413.910156 75.25 C 414.050781 75.449219 414.296875 75.636719 414.316406 75.84375 C 414.695313 79.484375 417.515625 79.15625 420.003906 79.367188 C 420.308594 79.394531 420.617188 79.378906 420.925781 79.386719 C 420.925781 79.386719 420.925781 79.386719 420.929688 79.386719 C 421.636719 79.695313 422.339844 79.726563 423.039063 79.363281 C 425.722656 79.492188 427.691406 78.0625 429.519531 76.355469 C 430.160156 75.757813 430.738281 75.085938 431.410156 74.523438 C 431.917969 74.09375 432.363281 73.023438 433.222656 74.304688 C 433.519531 74.753906 434.074219 73.671875 434.675781 73.992188 C 434.605469 74.585938 433.898438 74.574219 433.703125 75.054688 C 434.089844 75.523438 434.636719 75.027344 435.066406 75.238281 C 434.9375 75.71875 433.265625 75.828125 435.085938 76.75 C 432.136719 76.761719 430.265625 78.101563 428.761719 80.191406 C 427.292969 82.230469 424.796875 82.453125 422.667969 83.179688 C 421.417969 83.605469 420.953125 84.246094 420.835938 85.347656 C 420.710938 86.46875 420.691406 87.597656 420.625 88.722656 C 420.613281 88.769531 420.597656 88.820313 420.582031 88.871094 C 420.226563 90.144531 419.167969 91.523438 419.675781 92.59375 C 420.730469 94.800781 419.933594 97.285156 421.097656 99.609375 C 422.566406 98.097656 424.304688 97.582031 426.167969 97.3125 C 428.050781 97.039063 429.53125 96.113281 430.558594 94.453125 C 431.269531 93.300781 432.023438 93.175781 433.023438 94.332031 C 434.035156 95.503906 435.308594 96.453125 436.429688 97.535156 C 436.835938 97.925781 437.246094 98.492188 436.828125 99.019531 C 436.394531 99.570313 435.929688 98.953125 435.519531 98.777344 C 433.125 97.753906 430.867188 97.703125 428.613281 99.277344 C 426.308594 100.886719 423.855469 102.28125 421.515625 103.84375 C 420.105469 104.785156 418.988281 104.78125 418.058594 103.242188 C 417.234375 101.875 416.355469 100.949219 415.253906 103.03125 C 415.167969 103.1875 415.023438 103.34375 414.863281 103.433594 C 411.960938 105.035156 410.984375 107.632813 410.980469 110.785156 C 410.976563 111.773438 410.320313 112.554688 409.667969 113.21875 C 408.191406 114.71875 407.066406 116.410156 406.441406 118.433594 C 406 119.875 405.324219 120.566406 403.769531 119.449219 M 387.570313 104.917969 C 387.570313 104.914063 387.570313 104.910156 387.574219 104.90625 C 387.582031 104.910156 387.585938 104.917969 387.59375 104.925781 C 387.585938 104.921875 387.578125 104.917969 387.570313 104.917969 M 406.410156 108.234375 C 406.433594 108.230469 406.457031 108.230469 406.480469 108.230469 C 406.457031 108.257813 406.433594 108.285156 406.410156 108.308594 C 406.410156 108.285156 406.410156 108.257813 406.410156 108.234375 M 454.230469 89.429688 C 454.160156 89.257813 454.113281 89.070313 454.011719 88.921875 C 447.300781 79.234375 440.554688 69.574219 433.890625 59.851563 C 430.738281 55.253906 426.707031 52.230469 420.96875 51.867188 C 414.691406 51.46875 410.261719 54.65625 406.773438 59.378906 C 402.453125 65.230469 398.253906 71.171875 394.140625 77.171875 C 391.578125 80.90625 388.695313 84.417969 386.4375 88.359375 C 384.054688 91.644531 381.652344 94.921875 379.296875 98.222656 C 377.070313 101.339844 377.113281 101.308594 380.503906 103.207031 C 384.371094 105.375 388.1875 107.632813 392.023438 109.851563 C 387.015625 108.007813 382.136719 105.9375 377.34375 103.691406 C 376.132813 103.121094 375.617188 103.351563 374.949219 104.335938 C 373.328125 106.71875 371.613281 109.03125 369.949219 111.386719 C 367.90625 114.277344 365.882813 117.179688 363.703125 120.289063 L 475.625 120.289063 C 473.863281 117.722656 472.253906 115.359375 470.625 113.007813 C 465.164063 105.144531 459.695313 97.289063 454.230469 89.429688 "/>
<g clip-path="url(#clip4)" clip-rule="nonzero">
<path style=" stroke:none;fill-rule:nonzero;fill:rgb(13.299561%,12.199402%,12.199402%);fill-opacity:1;" d="M 453.5 134.960938 C 452.105469 134.957031 451.867188 135.472656 451.882813 136.707031 C 451.941406 141.527344 451.910156 146.351563 451.886719 151.175781 C 451.886719 151.625 452.144531 152.175781 451.550781 152.574219 C 451.105469 152.25 450.640625 151.9375 450.203125 151.59375 C 443.84375 146.621094 437.441406 141.695313 431.164063 136.625 C 429.636719 135.390625 428.128906 134.953125 426.230469 134.9375 C 424.648438 134.925781 424.414063 135.5 424.421875 136.878906 C 424.476563 145.273438 424.449219 153.667969 424.449219 162.0625 L 424.605469 162.0625 C 426.578125 162.0625 428.546875 162.0625 430.515625 162.0625 L 430.515625 143.921875 C 433.601563 146.378906 436.367188 148.566406 439.113281 150.777344 C 443.5625 154.363281 448.003906 157.960938 452.445313 161.554688 C 452.652344 161.726563 452.863281 161.894531 453.070313 162.0625 C 453.070313 162.0625 453.074219 162.0625 453.074219 162.066406 C 454.652344 162.0625 456.234375 162.0625 457.816406 162.058594 L 457.914063 162.058594 C 457.914063 154.480469 457.914063 146.898438 457.910156 139.320313 C 457.910156 134.90625 457.910156 134.96875 453.5 134.960938 "/>
</g>
<g clip-path="url(#clip5)" clip-rule="nonzero">
<path style=" stroke:none;fill-rule:nonzero;fill:rgb(13.299561%,12.199402%,12.199402%);fill-opacity:1;" d="M 382.707031 156.953125 C 377.378906 157.019531 372.046875 156.980469 366.714844 156.980469 C 361.4375 156.980469 361.46875 156.980469 361.699219 151.695313 C 361.742188 150.71875 362.019531 150.390625 363 150.410156 C 365.882813 150.457031 368.769531 150.425781 371.652344 150.425781 C 374.8125 150.425781 374.746094 150.425781 374.789063 147.214844 C 374.804688 145.957031 374.425781 145.597656 373.203125 145.640625 C 370.757813 145.722656 368.3125 145.664063 365.863281 145.664063 C 361.621094 145.664063 361.671875 145.664063 361.695313 141.414063 C 361.703125 140.167969 362.074219 139.835938 363.300781 139.847656 C 369.195313 139.910156 375.089844 139.875 380.984375 139.875 C 384.109375 139.875 384.03125 139.875 384.121094 136.839844 C 384.164063 135.371094 383.753906 134.945313 382.253906 134.960938 C 373.789063 135.035156 365.320313 135.035156 356.855469 134.957031 C 355.335938 134.945313 354.984375 135.414063 354.996094 136.855469 C 355.050781 145.257813 355.011719 153.660156 355.003906 162.066406 L 355.027344 162.066406 C 364.699219 162.0625 374.371094 162.054688 384.039063 162.050781 C 384.140625 162.050781 384.238281 162.050781 384.339844 162.050781 C 384.34375 160.921875 384.269531 159.785156 384.371094 158.664063 C 384.488281 157.363281 384.042969 156.933594 382.707031 156.953125 "/>
</g>
<g clip-path="url(#clip6)" clip-rule="nonzero">
<path style=" stroke:none;fill-rule:nonzero;fill:rgb(13.299561%,12.199402%,12.199402%);fill-opacity:1;" d="M 219.847656 151.035156 C 221.835938 147.355469 223.734375 143.832031 225.792969 140.019531 C 227.917969 143.820313 229.878906 147.324219 231.957031 151.035156 Z M 228.421875 134.992188 C 226.855469 135.007813 225.285156 135.019531 223.722656 134.992188 C 223.152344 134.980469 222.804688 135.175781 222.515625 135.667969 C 217.351563 144.46875 212.175781 153.261719 207.003906 162.054688 C 207.117188 162.054688 207.230469 162.054688 207.347656 162.054688 C 209.445313 162.058594 211.542969 162.0625 213.640625 162.066406 C 213.726563 161.894531 213.808594 161.730469 213.890625 161.566406 C 216.601563 156.160156 216.785156 156.160156 223.035156 156.160156 C 226.476563 156.160156 229.921875 156.191406 233.363281 156.144531 C 234.347656 156.128906 234.972656 156.386719 235.441406 157.320313 C 236.160156 158.761719 236.992188 160.144531 237.796875 161.542969 C 237.894531 161.714844 237.996094 161.890625 238.09375 162.0625 C 240.429688 162.0625 242.769531 162.0625 245.105469 162.0625 L 245.453125 162.0625 C 240.1875 153.253906 234.917969 144.449219 229.664063 135.632813 C 229.363281 135.125 228.964844 134.988281 228.421875 134.992188 "/>
</g>
<path style=" stroke:none;fill-rule:nonzero;fill:rgb(13.299561%,12.199402%,12.199402%);fill-opacity:1;" d="M 197.585938 142.226563 C 197.585938 142.222656 197.527344 142.152344 197.527344 142.152344 C 196.789063 141.628906 195.953125 141.914063 195.167969 141.914063 C 142.101563 141.902344 89.03125 141.917969 35.960938 141.921875 C 24.167969 141.921875 12.375 141.882813 0.585938 141.859375 C 0.410156 141.859375 0.234375 141.859375 0.0625 141.859375 C 0.0703125 143.003906 0.0742188 144.152344 0.078125 145.300781 L 0.578125 145.300781 C 36.015625 145.296875 71.460938 145.289063 106.898438 145.28125 C 107.648438 145.28125 108.398438 145.21875 109.148438 145.1875 C 109.648438 145.1875 110.148438 145.1875 110.648438 145.1875 C 111.152344 145.1875 111.65625 145.1875 112.15625 145.1875 C 112.53125 145.214844 112.90625 145.261719 113.277344 145.261719 C 140.898438 145.273438 168.519531 145.277344 196.140625 145.277344 C 196.632813 145.277344 197.152344 145.410156 197.59375 145.0625 C 197.921875 144.117188 197.949219 143.171875 197.585938 142.226563 "/>
<path style=" stroke:none;fill-rule:nonzero;fill:rgb(13.299561%,12.199402%,12.199402%);fill-opacity:1;" d="M 196.144531 151.011719 C 168.453125 151.042969 140.761719 151.046875 113.066406 151.058594 C 112.507813 151.058594 111.945313 151.121094 111.386719 151.15625 C 110.324219 151.117188 109.261719 151.046875 108.203125 151.042969 C 72.324219 151.039063 36.449219 151.042969 0.574219 151.042969 L 0.0859375 151.042969 C 0.0859375 152.144531 0.0859375 153.25 0.0859375 154.351563 L 0.574219 154.351563 C 35.636719 154.351563 70.699219 154.351563 105.761719 154.347656 C 106.636719 154.347656 107.511719 154.28125 108.382813 154.246094 C 108.570313 154.277344 108.753906 154.328125 108.9375 154.328125 C 138.074219 154.339844 167.210938 154.335938 196.339844 154.394531 C 197.996094 154.398438 197.707031 153.488281 197.808594 152.488281 C 197.945313 151.117188 197.273438 151.011719 196.144531 151.011719 "/>
<path style=" stroke:none;fill-rule:nonzero;fill:rgb(13.299561%,12.199402%,12.199402%);fill-opacity:1;" d="M 136.523438 30.886719 C 145.75 31.699219 154.90625 33.046875 164.042969 34.558594 C 175.761719 36.503906 187.410156 38.804688 199.007813 41.378906 C 203.941406 42.472656 208.863281 43.625 213.789063 44.753906 C 206.140625 41.179688 198.117188 38.804688 190.003906 36.738281 C 173.015625 32.40625 155.75 29.53125 138.390625 27.164063 C 136.539063 26.910156 135.566406 27.042969 135.304688 29.234375 C 135.148438 30.542969 135.289063 30.777344 136.523438 30.886719 "/>
<path style=" stroke:none;fill-rule:nonzero;fill:rgb(13.299561%,12.199402%,12.199402%);fill-opacity:1;" d="M 137.800781 25.921875 C 148.660156 26.820313 159.433594 28.386719 170.160156 30.273438 C 177.847656 31.632813 185.503906 33.15625 193.195313 34.648438 C 192.675781 34.441406 192.164063 34.210938 191.636719 34.039063 C 183.726563 31.441406 175.695313 29.273438 167.589844 27.40625 C 157.652344 25.125 147.652344 23.128906 137.574219 21.558594 C 137.046875 21.476563 136.164063 21.066406 136.0625 21.605469 C 135.835938 22.808594 135.847656 24.101563 136.035156 25.316406 C 136.175781 26.210938 137.183594 25.871094 137.800781 25.921875 "/>
<path style=" stroke:none;fill-rule:nonzero;fill:rgb(13.299561%,12.199402%,12.199402%);fill-opacity:1;" d="M 337.179688 80.351563 C 344.035156 83.785156 350.867188 87.210938 357.988281 90.777344 C 355.53125 83.148438 344.328125 79.59375 337.179688 80.351563 "/>
</g>
</svg>
